<svg width="43" height="44" viewBox="0 0 43 44" fill="none" xmlns="http://www.w3.org/2000/svg">
<g clip-path="url(#clip0_333_900)">
<path fill-rule="evenodd" clip-rule="evenodd" d="M41.9912 9.78494C42.0068 9.8426 42.0148 9.90205 42.0149 9.96178V19.2458C42.0149 19.3649 41.9835 19.482 41.9238 19.5851C41.864 19.6882 41.7781 19.7737 41.6748 19.833L33.8825 24.3193V33.2116C33.8825 33.4536 33.7539 33.6769 33.5441 33.7988L17.2785 43.1623C17.2412 43.1835 17.2006 43.197 17.16 43.2114C17.1448 43.2165 17.1304 43.2258 17.1143 43.23C17.0006 43.26 16.8811 43.26 16.7674 43.23C16.7488 43.2249 16.7318 43.2148 16.7141 43.208C16.6768 43.1945 16.6379 43.1826 16.6024 43.1623L0.340154 33.7988C0.236845 33.7394 0.151005 33.6539 0.0912869 33.5508C0.0315687 33.4477 8.18564e-05 33.3307 0 33.2116L0 5.35955C0 5.29863 0.00846154 5.2394 0.0236923 5.18186C0.0287692 5.1624 0.0406154 5.14463 0.0473846 5.12517C0.0600769 5.08963 0.0719231 5.05324 0.0905385 5.02024C0.103231 4.99824 0.121846 4.98047 0.137077 4.96017C0.156538 4.93309 0.174308 4.90517 0.197154 4.88147C0.216615 4.86201 0.242 4.84763 0.264 4.83071C0.288538 4.8104 0.310539 4.7884 0.338462 4.77232H0.339308L8.47085 0.0905516C8.57381 0.0313043 8.69052 0.00012207 8.80931 0.00012207C8.9281 0.00012207 9.04481 0.0313043 9.14777 0.0905516L17.2793 4.77232H17.281C17.3081 4.78924 17.3309 4.8104 17.3555 4.82986C17.3775 4.84678 17.402 4.86201 17.4215 4.88063C17.4452 4.90517 17.4621 4.93309 17.4824 4.96017C17.4968 4.98047 17.5162 4.99824 17.5281 5.02024C17.5475 5.05409 17.5585 5.08963 17.5721 5.12517C17.5788 5.14463 17.5907 5.1624 17.5958 5.18271C17.6113 5.24037 17.6193 5.29982 17.6195 5.35955V22.7556L24.3955 18.854V9.96094C24.3955 9.90171 24.4039 9.84163 24.4192 9.78494C24.4251 9.76463 24.4361 9.74686 24.4428 9.7274C24.4564 9.69186 24.4682 9.65548 24.4868 9.62248C24.4995 9.60048 24.5182 9.58271 24.5325 9.5624C24.5528 9.53532 24.5698 9.5074 24.5935 9.48371C24.6129 9.46424 24.6375 9.44986 24.6595 9.43294C24.6848 9.41263 24.7068 9.39063 24.7339 9.37455H24.7348L32.8672 4.69278C32.9701 4.63345 33.0868 4.60222 33.2056 4.60222C33.3244 4.60222 33.4411 4.63345 33.5441 4.69278L41.6756 9.37455C41.7044 9.39148 41.7264 9.41263 41.7518 9.43209C41.7729 9.44901 41.7975 9.46424 41.8169 9.48286C41.8406 9.5074 41.8575 9.53532 41.8778 9.5624C41.8931 9.58271 41.9117 9.60048 41.9235 9.62248C41.943 9.65548 41.954 9.69186 41.9675 9.7274C41.9752 9.74686 41.9862 9.76463 41.9912 9.78494ZM40.6594 18.854V11.1337L37.8138 12.7719L33.8825 15.0353V22.7556L40.6602 18.854H40.6594ZM32.5279 32.8198V25.0944L28.6609 27.3029L17.6186 33.605V41.4032L32.5279 32.8198ZM1.35554 6.53148V32.8198L16.2631 41.4023V33.6059L8.47508 29.1982L8.47254 29.1966L8.46915 29.1949C8.44292 29.1796 8.42092 29.1576 8.39639 29.139C8.37523 29.1221 8.35069 29.1086 8.33208 29.0899L8.33039 29.0874C8.30839 29.0662 8.29315 29.04 8.27454 29.0163C8.25762 28.9935 8.23731 28.974 8.22377 28.9503L8.22292 28.9478C8.20769 28.9224 8.19839 28.8919 8.18738 28.8632C8.17638 28.8378 8.162 28.8141 8.15523 28.787V28.7862C8.14677 28.754 8.14508 28.7202 8.14169 28.6872C8.13831 28.6618 8.13154 28.6364 8.13154 28.611V28.6093V10.4331L4.20115 8.16878L1.35554 6.53232V6.53148ZM8.81015 1.45963L2.035 5.35955L8.80846 9.25948L15.5828 5.35871L8.80846 1.45963H8.81015ZM12.3335 25.7984L16.2639 23.5358V6.53148L13.4183 8.16963L9.48708 10.4331V27.4374L12.3335 25.7984ZM33.2056 6.06186L26.4313 9.96178L33.2056 13.8617L39.9791 9.96094L33.2056 6.06186ZM32.5279 15.0353L28.5966 12.7719L25.751 11.1337V18.854L29.6814 21.1166L32.5279 22.7556V15.0353ZM16.94 32.4331L26.8764 26.7605L31.8433 23.9259L25.0741 20.0285L17.2802 24.5156L10.1767 28.6051L16.94 32.4331Z" fill="#BDCFE9"/>
</g>
<defs>
<clipPath id="clip0_333_900">
<rect width="42.3077" height="44" fill="white"/>
</clipPath>
</defs>
</svg>
