<svg width="253" height="48" viewBox="0 0 253 48" fill="none" xmlns="http://www.w3.org/2000/svg">
<path d="M42.5395 17.5195C42.5395 19.5595 41.5995 21.3995 40.0795 22.5995C38.9795 23.4995 37.5595 24.0395 36.0195 24.0395C32.4395 24.0395 29.5195 21.1195 29.5195 17.5395C29.5195 15.7595 30.2395 14.1395 31.4395 12.9595V12.9395C32.6195 11.7595 34.2395 11.0195 36.0195 11.0195C39.6195 11.0195 42.5395 13.9395 42.5395 17.5195Z" fill="#F2A33A"/>
<path d="M40.3595 37.4599C38.2595 39.3799 35.5595 40.4399 32.6995 40.4399H11.9395C6.45953 40.0399 4.01953 35.82 4.01953 32.0599C4.01953 28.6999 5.95953 24.9799 10.2195 23.9399C8.35953 16.7799 11.9195 11.7799 16.0795 9.39994C20.1995 7.05994 25.9995 6.67994 30.3595 9.89994C29.9795 10.1799 29.6395 10.4799 29.2995 10.8199L28.4395 11.7199V11.8399C27.1995 13.4599 26.5195 15.4399 26.5195 17.5199C26.5195 22.7599 30.7995 27.0199 36.0395 27.0199C38.1995 27.0199 40.2995 26.2799 41.9395 24.9399C42.2395 24.6999 42.5395 24.4399 42.7995 24.1599C44.7795 28.3199 44.4995 33.8399 40.3595 37.4599Z" fill="#6A88B6"/>
<path d="M82.02 32H86.94L78.06 18.36H72.66L63.76 32H68.64L70.3 29.36H80.38L82.02 32ZM72.06 26.54L75.34 21.3L78.6 26.54H72.06ZM95.8627 21.8L92.0027 28.88L88.7227 21.8H84.7827L89.6427 32H93.9827L98.1627 24.54L102.343 32H106.703L111.923 21.8H107.923L104.563 28.92L100.623 21.8H95.8627ZM128.268 22.26C126.008 21.96 123.068 21.6 119.548 21.6C114.968 21.6 111.828 22.9 111.828 27C111.828 30.8 114.248 32.2 117.868 32.2C120.308 32.2 122.668 31.5 124.668 30.64L124.948 32H128.268V22.28H128.248L128.268 22.26ZM115.608 26.86C115.608 25.26 116.808 24.64 119.168 24.64C120.848 24.64 122.808 24.74 124.488 24.9V28.08C122.348 28.7 120.348 29.08 118.608 29.08C116.428 29.08 115.608 28.48 115.608 26.86ZM130.295 32H134.075V25.58C136.195 25 138.075 24.68 139.635 24.68C141.735 24.68 142.775 25.42 142.775 26.98V32H146.555V26.34C146.555 22.94 144.535 21.54 140.855 21.54C138.375 21.54 135.915 22.2 133.835 23.02L133.615 21.8H130.295V32ZM155.747 32V25.38H171.187V32H172.367V18.36H171.187V24.32H155.747V18.36H154.567V32H155.747ZM175.319 27.06C175.319 30.64 177.879 32.2 183.559 32.2C189.239 32.2 191.799 30.64 191.799 27.06C191.799 23.48 189.239 21.9 183.559 21.9C177.879 21.9 175.319 23.48 175.319 27.06ZM176.459 27.06C176.459 24.12 178.439 22.9 183.559 22.9C188.679 22.9 190.659 24.12 190.659 27.06C190.659 30 188.679 31.2 183.559 31.2C178.439 31.2 176.459 30 176.459 27.06ZM207.882 29.56C207.882 27.48 206.302 26.92 203.002 26.68L198.402 26.36C196.682 26.22 195.442 26.06 195.442 24.6C195.442 23.12 196.922 22.78 200.982 22.78C202.842 22.78 204.542 22.9 206.882 23.22L207.062 22.36C205.082 22.06 202.582 21.9 201.142 21.9C196.582 21.9 194.362 22.4 194.362 24.62C194.362 26.7 195.942 27.1 198.302 27.28L202.542 27.56C205.502 27.78 206.782 28.04 206.782 29.54C206.782 31.04 205.562 31.32 201.362 31.32C199.142 31.32 197.082 31.12 194.762 30.74L194.582 31.6C196.742 31.98 198.982 32.22 201.622 32.22C206.402 32.22 207.882 31.58 207.882 29.56ZM212.137 26.92C212.137 30.78 213.577 32.22 217.737 32.22C219.557 32.22 221.297 31.9 222.577 31.58L222.337 30.62C221.077 30.92 219.517 31.22 217.797 31.22C214.257 31.22 213.277 30.06 213.277 26.9V23.1H222.097V22.12H213.277V19.62H212.357L212.157 22.12H209.477V23.1H212.137V26.92ZM232.657 31.24C228.317 31.24 225.877 30.5 225.677 27.44H239.637C239.677 27.26 239.717 26.96 239.717 26.7C239.717 23 236.517 21.9 232.197 21.9C227.517 21.9 224.557 23.22 224.557 27.04C224.557 30.98 227.357 32.22 232.597 32.22C235.137 32.22 237.737 31.82 239.257 31.44L239.017 30.5C238.137 30.72 235.457 31.24 232.657 31.24ZM232.157 22.8C236.937 22.8 238.477 24.08 238.617 26.64H225.677C225.857 23.76 228.097 22.8 232.157 22.8ZM242.672 32H243.812V25.26C246.632 23.54 249.072 22.94 251.452 22.94V21.9C248.352 21.9 245.832 23.04 243.792 24.4L243.652 22.12H242.672V32Z" fill="#0A2259"/>
</svg>
