<svg width="48" height="26" viewBox="0 0 48 26" fill="none" xmlns="http://www.w3.org/2000/svg">
<path fill-rule="evenodd" clip-rule="evenodd" d="M46.4137 12.9623C46.4137 19.244 36.3785 24.3364 23.9998 24.3364C11.6212 24.3364 1.58594 19.244 1.58594 12.9623C1.58594 6.68073 11.6212 1.5883 23.9998 1.5883C36.3785 1.5883 46.4137 6.68073 46.4137 12.9623ZM18.958 8.75155C18.2475 7.93711 17.1171 7.52994 15.5676 7.52994H10.4167L8.02683 19.8424H10.7054L11.3407 16.5689H13.6351C14.6475 16.5689 15.4803 16.4628 16.1341 16.2495C16.7879 16.0367 17.3821 15.6796 17.9169 15.1784C18.3658 14.7652 18.729 14.3095 19.0071 13.8112C19.2849 13.3132 19.4822 12.7635 19.5989 12.1623C19.8824 10.7028 19.6684 9.56599 18.958 8.75155ZM13.3471 14.626H11.7178L12.718 9.4729H14.5533C15.5709 9.4729 16.2491 9.66103 16.5882 10.0372C16.9269 10.4134 17.0077 11.0591 16.8304 11.9742C16.6452 12.9272 16.2886 13.6074 15.76 14.0149C15.2315 14.4223 14.427 14.626 13.3471 14.626ZM23.8415 7.5302L24.4768 4.25672H21.8194L19.4295 16.5692H22.087L23.4559 9.5154H25.5798C26.2597 9.5154 26.7042 9.62826 26.9132 9.85364C27.1221 10.079 27.1663 10.5017 27.046 11.1215L25.9888 16.5692H28.6885L29.8004 10.8397C30.0264 9.67413 29.857 8.83097 29.2915 8.31059C28.726 7.79055 27.6985 7.5302 26.2089 7.5302H23.8415ZM36.4742 7.52994C38.0237 7.52994 39.1541 7.93711 39.8646 8.75155C40.5751 9.56599 40.789 10.7028 40.5055 12.1623C40.3888 12.7635 40.1915 13.3132 39.9137 13.8112C39.6355 14.3095 39.2723 14.7652 38.8235 15.1784C38.2887 15.6796 37.6945 16.0367 37.0407 16.2495C36.3868 16.4628 35.5541 16.5689 34.5417 16.5689H32.2473L31.6121 19.8424H28.9335L31.3234 7.52994H36.4742ZM32.6244 14.626H34.2537C35.3336 14.626 36.138 14.4223 36.6666 14.0149C37.1953 13.6074 37.5517 12.9272 37.737 11.9742C37.9143 11.0591 37.8336 10.4134 37.4948 10.0372C37.1556 9.66103 36.4774 9.4729 35.4598 9.4729H33.6246L32.6244 14.626Z" fill="#BDCFE9"/>
</svg>
